<?xml version="1.0" encoding="UTF-8" standalone="no"?>
<!-- Created with Inkscape (http://www.inkscape.org/) -->

<svg
   xmlns:dc="http://purl.org/dc/elements/1.1/"
   xmlns:cc="http://creativecommons.org/ns#"
   xmlns:rdf="http://www.w3.org/1999/02/22-rdf-syntax-ns#"
   xmlns:svg="http://www.w3.org/2000/svg"
   xmlns="http://www.w3.org/2000/svg"
   xmlns:sodipodi="http://sodipodi.sourceforge.net/DTD/sodipodi-0.dtd"
   xmlns:inkscape="http://www.inkscape.org/namespaces/inkscape"
   width="41.196495mm"
   height="32.669872mm"
   viewBox="0 0 145.97183 115.75938"
   id="svg2"
   version="1.1"
   inkscape:version="0.91 r13725"
   sodipodi:docname="longbottle-front.svg"
   inkscape:export-filename="C:\Users\Haritha\Desktop\bottlereadheart.png"
   inkscape:export-xdpi="301.69891"
   inkscape:export-ydpi="301.69891">
  <defs
     id="defs4">
    <clipPath
       clipPathUnits="userSpaceOnUse"
       id="clipPath4529">
      <circle
         style="fill:#55ffdd;fill-opacity:1"
         id="circle4531"
         cx="304.10651"
         cy="725.72968"
         r="152.78551" />
    </clipPath>
    <clipPath
       clipPathUnits="userSpaceOnUse"
       id="clipPath4591">
      <circle
         style="fill:#55ffdd;fill-opacity:1"
         id="circle4593"
         cx="207.10651"
         cy="384.62872"
         r="152.78551" />
    </clipPath>
    <clipPath
       clipPathUnits="userSpaceOnUse"
       id="clipPath4595">
      <circle
         style="fill:#55ffdd;fill-opacity:1"
         id="circle4597"
         cx="207.10651"
         cy="384.62872"
         r="152.78551" />
    </clipPath>
    <clipPath
       clipPathUnits="userSpaceOnUse"
       id="clipPath4599">
      <circle
         style="fill:#55ffdd;fill-opacity:1"
         id="circle4601"
         cx="376.94965"
         cy="376.83868"
         r="112.17193"
         transform="matrix(0.98419561,0.17708473,-0.17708473,0.98419561,0,0)" />
    </clipPath>
    <clipPath
       clipPathUnits="userSpaceOnUse"
       id="clipPath4603">
      <circle
         style="fill:#55ffdd;fill-opacity:1"
         id="circle4605"
         cx="207.10651"
         cy="384.62872"
         r="152.78551" />
    </clipPath>
    <clipPath
       clipPathUnits="userSpaceOnUse"
       id="clipPath4607">
      <circle
         style="fill:#55ffdd;fill-opacity:1"
         id="circle4609"
         cx="207.10651"
         cy="384.62872"
         r="152.78551" />
    </clipPath>
    <clipPath
       clipPathUnits="userSpaceOnUse"
       id="clipPath4352">
      <g
         id="g4354"
         inkscape:export-xdpi="301.59927"
         inkscape:export-ydpi="301.59927"
         transform="translate(40,328.10097)">
        <path
           clip-path="url(#clipPath4607)"
           inkscape:connector-curvature="0"
           inkscape:export-ydpi="301.52682"
           inkscape:export-xdpi="301.52682"
           id="path4356"
           d="m 60.98995,231.94379 292.13195,0 c 3.69467,0 6.66909,2.97441 6.66909,6.66909 l 0,292.13194 c 0,3.69468 -2.97442,6.66909 -6.66909,6.66909 l -292.13195,0 c -3.69467,0 -6.66909,-2.97441 -6.66909,-6.66909 l 0,-292.13194 c 0,-3.69468 2.97442,-6.66909 6.66909,-6.66909 z"
           style="fill:#ffeeaa;fill-opacity:1;stroke:none;stroke-width:0.245;stroke-miterlimit:4;stroke-dasharray:none;stroke-opacity:1" />
        <path
           clip-path="url(#clipPath4603)"
           inkscape:export-ydpi="301.52682"
           inkscape:export-xdpi="301.52682"
           sodipodi:nodetypes="scccssssssss"
           inkscape:connector-curvature="0"
           id="path4358"
           d="m 62.40417,346.1936 c 22.09081,8.9117 34.48783,32.36408 61.09583,34.5 33.58601,-3.17654 46.01555,-32.98565 79,-34.5 38.84689,5.58615 52.11912,31.8882 85.5,34 26.79962,-2.45317 49.03766,-12.88911 65.17573,-34 2.24384,-2.93526 6.66909,2.97442 6.66909,6.66909 l 0,146.46796 c 0,3.69468 -2.97442,6.66909 -6.66909,6.66909 l -290.77156,0 c -3.69468,0 -6.66909,-2.97441 -6.66909,-6.66909 l 0,-146.46796 c 0,-3.69467 3.24271,-8.05133 6.66909,-6.66909 z"
           style="fill:#00aad4;fill-opacity:1;stroke:none;stroke-width:0.245;stroke-miterlimit:4;stroke-dasharray:none;stroke-opacity:1" />
        <g
           clip-path="url(#clipPath4599)"
           inkscape:export-ydpi="301.52682"
           inkscape:export-xdpi="301.52682"
           transform="matrix(1.3405388,-0.24120098,0.24120098,1.3405388,-306.32356,-128.65022)"
           id="g4360">
          <path
             inkscape:export-ydpi="368.22684"
             inkscape:export-xdpi="368.22684"
             style="display:inline;fill:#a05a2c;fill-opacity:1;stroke:none;stroke-width:0.245;stroke-miterlimit:4;stroke-dasharray:none;stroke-opacity:1"
             d="m 356.50323,402.46789 c -0.70248,-1.10476 -1.70515,-2.88255 -2.23036,-3.94937 l -0.95528,-1.93947 0.82785,-0.79603 c 0.45533,-0.43773 2.75049,-2.43154 5.10047,-4.43056 2.35001,-1.99899 5.88116,-5.03126 7.84702,-6.7383 5.12115,-4.4469 4.4164,-4.16612 6.1793,-2.46143 1.26873,1.22685 5.34324,5.77736 6.04417,6.7333 0.17614,0.24024 -2.19663,1.74481 -10.72764,7.85242 l -10.78382,7.77574 z"
             id="path4362"
             inkscape:connector-curvature="0"
             sodipodi:nodetypes="sscsssscscs" />
          <path
             inkscape:export-ydpi="368.22684"
             inkscape:export-xdpi="368.22684"
             style="display:inline;fill:#784421;fill-opacity:1;stroke:none;stroke-width:0.245;stroke-miterlimit:4;stroke-dasharray:none;stroke-opacity:1"
             d="m 365.19645,411.82441 c -0.32536,0.21424 -0.0871,0.4134 -1.51325,-0.90966 -1.52404,-1.41433 -5.06067,-5.27641 -5.84117,-6.32803 -0.21016,-0.28522 2.1107,-1.81576 10.66301,-7.93863 l 10.83549,-7.75746 0.78354,1.09513 c 2.54524,3.56421 4.19674,8.28077 3.70714,8.77839 -6.23331,4.31541 -11.49064,8.01972 -18.63432,13.05993 z"
             id="path4364"
             inkscape:connector-curvature="0"
             sodipodi:nodetypes="cscscccc" />
          <path
             inkscape:export-ydpi="368.22684"
             inkscape:export-xdpi="368.22684"
             style="display:inline;fill:#deaa87;fill-opacity:1;stroke:none;stroke-width:0.245;stroke-miterlimit:4;stroke-dasharray:none;stroke-opacity:1"
             d="m 371.43592,381.11381 c 0,0 -1.32286,0.8441 -2.14624,1.59592 -0.96791,0.88375 -4.29944,3.7345 -7.34428,6.41232 -3.04484,2.67784 -6.17637,5.3115 -6.88762,5.94238 -0.71131,0.63091 -1.29579,1.23243 -1.42346,1.32416 l -0.28095,0.26421 -0.34796,-0.83292 0,5e-5 c -0.16196,-0.39904 -0.40542,-1.09563 -0.44684,-1.20207 -0.096,-0.24624 -0.12566,0.13468 5.12227,-4.35602 2.33975,-2.00217 5.20897,-4.4626 6.37606,-5.46757 4.5587,-3.92548 6.02374,-5.17349 6.05829,-5.16083 0.0194,0.006 0.56606,0.25449 0.88962,0.56954 0.32531,0.21585 0.71626,0.49982 1.07389,0.85524"
             id="path4366"
             inkscape:connector-curvature="0"
             sodipodi:nodetypes="cssscccccssccc" />
          <path
             inkscape:export-ydpi="368.22684"
             inkscape:export-xdpi="368.22684"
             style="display:inline;fill:#80e5ff;fill-opacity:1;stroke:none;stroke-width:0.245;stroke-miterlimit:4;stroke-dasharray:none;stroke-opacity:1"
             d="m 232.53703,530.65352 c -2.27972,1.29915 -4.60867,1.97658 -7.2962,2.12232 -4.82113,0.26147 -9.42612,-1.85672 -14.53403,-6.68526 -1.84048,-1.73976 -6.03713,-6.58711 -7.68637,-8.87819 l -0.9172,-1.37301 1.23207,-0.85238 1.26509,-0.90548 1.55623,2.17372 c 5.29182,7.39155 12.94203,13.65909 17.12351,14.02866 1.05755,0.0933 2.94789,-0.25692 3.07459,-0.56993 -7.73677,-3.4777 -14.08981,-11.98721 -18.54505,-17.87646 l 70.41278,-50.46418 c 38.49242,-27.58723 78.89618,-57.12889 78.95241,-57.05039 0.32763,0.45807 4.53644,-4.20429 5.18671,-3.10335 1.53169,2.06954 14.11565,16.92733 12.71382,18.35784 -1.02745,0.76203 -4.55933,5.13406 -7.42625,4.44024 -1.94679,-0.47107 -2.82654,-5.24118 -4.93827,-5.28018 -5.63303,-0.10407 -9.95718,6.89133 -9.5804,7.94276 3.66864,13.9923 0.89284,16.5269 -9.50615,24.36354 -1.30828,1.23054 -9.66614,7.26255 -55.56612,40.10325 -30.70499,21.96891 -54.67147,39.02256 -55.52101,39.50674 z"
             id="path4368"
             inkscape:connector-curvature="0"
             sodipodi:nodetypes="cssccccssccssccssccscc" />
          <path
             inkscape:export-ydpi="368.22684"
             inkscape:export-xdpi="368.22684"
             style="display:inline;fill:#aaeeff;fill-opacity:1;stroke:none;stroke-width:0.245;stroke-miterlimit:4;stroke-dasharray:none;stroke-opacity:1"
             d="m 201.68785,515.28001 c -1.26865,-1.79125 -4.80366,-7.86883 -5.87901,-10.10815 -4.3152,-8.98557 -4.4549,-16.1635 -0.41988,-21.57506 l 1.29326,-1.73447 56.41828,-40.3915 56.41831,-40.39153 c 6.96737,-3.5418 11.4136,-7.07038 17.28291,-4.56087 5.6485,2.81291 5.83976,2.92257 9.39858,4.88648 0.43203,0.23841 1.42359,0.24066 2.14587,-0.25985 0.76526,-0.5303 9.83337,-4.33196 7.03968,-8.05318 -2.12023,-2.82422 -3.4391,-3.59505 -3.00943,-5.04831 0.90371,-3.05675 6.42648,-4.83753 6.6219,-4.94661 1.94186,0.80102 13.46159,17.88443 13.25508,18.09712 -2.05605,1.43625 -3.22556,2.28262 -5.05182,3.57378 l -10.61951,7.80205 -68.2669,48.904 -70.48922,50.37059 c -4.90344,-6.64116 -7.0509,-13.7092 -8.98522,-20.63748 -0.33152,-1.1904 -0.0179,-4.42691 -0.0987,-4.42317 -0.44847,0.0205 -1.4753,1.44766 -1.99707,2.77494 -1.71987,4.37504 0.30662,11.78994 5.75303,21.05065 l 2.19154,3.57527 -1.28475,0.91944 -1.21479,0.88495 -0.50276,-0.70894 z m 124.36865,-115.614 c -4.04995,-3.02134 -10.42111,0.94307 -13.71963,2.5119 -1.91011,0.92173 -3.62913,2.08771 -21.19927,14.38021 -34.6653,24.25263 -86.63236,61.71172 -88.78122,63.99563 -0.65043,0.69132 -0.007,0.53262 1.46402,-0.36077 5.8776,-3.57098 42.14149,-27.38131 85.86869,-59.78164 20.64447,-15.29671 21.81865,-15.42986 23.41196,-16.36482 3.51432,-2.06214 6.26344,-3.73778 10.48342,-2.53145 3.77164,1.07815 6.88386,3.22405 10.57399,3.73874 2.06804,0.28848 4.69126,0.35902 4.65114,0.0864 -4.81041,-1.9102 -8.59472,-3.23057 -12.75308,-5.67433 z"
             id="path4370"
             inkscape:connector-curvature="0"
             sodipodi:nodetypes="cssccccsssscccccccssscccccccssssssscc" />
          <path
             inkscape:export-ydpi="368.22684"
             inkscape:export-xdpi="368.22684"
             sodipodi:nodetypes="ccccc"
             inkscape:connector-curvature="0"
             id="path4372"
             d="m 348.22391,385.82706 c -2.11143,-0.075 -2.76422,0.38872 -3.9564,1.24264 9.94003,10.11289 21.09389,24.50476 25.91167,34.11504 -0.009,0.65043 2.09646,-0.61477 3.2317,-2.12991 -8.40113,-10.97962 -16.35789,-21.80972 -25.18688,-33.22747 z"
             style="display:inline;fill:#d5f6ff;fill-opacity:1;stroke:none;stroke-width:0.245;stroke-miterlimit:4;stroke-dasharray:none;stroke-opacity:1" />
          <path
             inkscape:export-ydpi="368.22684"
             inkscape:export-xdpi="368.22684"
             sodipodi:nodetypes="cssccccsssssscc"
             inkscape:connector-curvature="0"
             id="path4375"
             d="m 337.24363,405.47265 c -3.21683,-0.0727 -4.72676,-0.17961 -8.558,-1.80032 -5.03896,-2.13077 -6.85793,-2.81589 -9.2226,-2.42979 -3.73923,0.61021 -8.97352,4.40944 -25.63293,16.53834 -26.62281,19.4134 -53.21676,39.32861 -82.0798,57.58178 -2.59293,1.31937 -8.78002,6.01928 -10.07796,5.78492 4.07139,-4.50105 9.463,-8.04661 15.0517,-11.71831 17.77686,-12.75073 79.66935,-57.3766 90.81903,-64.59237 3.18813,-2.06327 4.12425,-2.72258 6.65681,-3.95863 1.58271,-0.77263 3.84141,-1.58722 4.58721,-1.84796 2.73218,-0.95568 5.18379,-0.79531 6.74645,0.0826 3.9114,2.19719 6.22113,3.22586 11.06808,5.11321 1.24836,0.48609 2.42002,0.96141 2.445,0.99628 0.10791,0.15127 -0.21168,0.33238 -1.28819,0.30772 z"
             style="display:inline;fill:#d5f6ff;fill-opacity:1;stroke:none;stroke-width:0.245;stroke-miterlimit:4;stroke-dasharray:none;stroke-opacity:1" />
          <path
             inkscape:export-ydpi="368.22684"
             inkscape:export-xdpi="368.22684"
             sodipodi:nodetypes="sssssssss"
             inkscape:connector-curvature="0"
             id="path4377"
             d="m 224.10717,530.41144 c -5.1357,0.14564 -15.6651,-9.14667 -21.68839,-19.43231 -5.81876,-9.9364 -6.21629,-14.14935 -6.31934,-19.37711 -0.0392,-1.98645 1.80468,-4.9538 2.55226,-4.88119 0.34708,0.0338 0.0186,2.04541 0.0203,2.69553 0.005,1.86128 2.07377,7.76636 4.01599,12.66876 3.50296,8.84149 14.4859,22.27121 21.71305,26.5348 1.04324,0.61544 1.92988,1.08567 1.91037,1.20366 -0.0189,0.118 -1.22303,0.5601 -2.20432,0.58783 z"
             style="display:inline;fill:#d5f6ff;fill-opacity:1;stroke:none;stroke-width:0.245;stroke-miterlimit:4;stroke-dasharray:none;stroke-opacity:1" />
        </g>
        <path
           clip-path="url(#clipPath4595)"
           inkscape:export-ydpi="301.52682"
           inkscape:export-xdpi="301.52682"
           sodipodi:nodetypes="scccsssscssss"
           inkscape:connector-curvature="0"
           id="path4379"
           d="m 62.11422,376.8547 c 22.09081,8.9117 34.48783,32.36408 61.09583,34.5 33.58601,-3.17654 46.01555,-32.98565 79,-34.5 38.84689,5.58615 52.11912,31.8882 85.5,34 26.79962,-2.45317 49.03766,-12.88911 65.17573,-34 2.24384,-2.93526 6.66909,2.97442 6.66909,6.66909 l 0,112.96796 c 0,3.69468 -4.4745,6.1939 -8.16909,6.16909 l -148.88578,-1 -139.88578,0 c -3.69468,0 -7.16909,-0.85488 -7.16909,-4.54956 l 0,-113.58749 c 0,-3.69467 3.24271,-8.05133 6.66909,-6.66909 z"
           style="fill:#0088aa;fill-opacity:1;stroke:none;stroke-width:0.245;stroke-miterlimit:4;stroke-dasharray:none;stroke-opacity:1" />
        <path
           clip-path="url(#clipPath4591)"
           inkscape:export-ydpi="301.52682"
           inkscape:export-xdpi="301.52682"
           sodipodi:nodetypes="scccssssssss"
           inkscape:connector-curvature="0"
           id="path4381"
           d="m 61.66118,421.5841 c 22.08067,8.9117 34.47201,32.36408 61.0678,34.5 33.5706,-3.17654 45.99443,-32.98565 78.96375,-34.5 38.82907,5.58615 52.09521,31.8882 85.46077,34 26.78732,-2.45317 49.01516,-12.88911 65.14583,-34 2.24281,-2.93526 6.62967,2.9746 6.66603,6.66909 l 0.99954,101.59301 c 0.0364,3.69442 -2.47329,7.54242 -6.16626,7.544 l -293.01206,0.125 c -3.69298,0.002 -6.30915,-2.72444 -6.2912,-6.419 l 0.49977,-102.84301 c 0.018,-3.69463 3.24122,-8.05133 6.66603,-6.66909 z"
           style="fill:#006680;fill-opacity:1;stroke:none;stroke-width:0.245;stroke-miterlimit:4;stroke-dasharray:none;stroke-opacity:1" />
      </g>
    </clipPath>
    <clipPath
       clipPathUnits="userSpaceOnUse"
       id="clipPath4638">
      <rect
         style="fill:#00aad4;fill-opacity:1"
         id="rect4640"
         width="151.79984"
         height="169.94701"
         x="-490.72137"
         y="234.07944"
         ry="6.2791791"
         transform="matrix(-0.9425568,-0.33404593,-0.31979873,0.9474855,0,0)" />
    </clipPath>
    <clipPath
       clipPathUnits="userSpaceOnUse"
       id="clipPath4638-1">
      <rect
         style="fill:#00aad4;fill-opacity:1"
         id="rect4640-8"
         width="151.79984"
         height="169.94701"
         x="-490.72137"
         y="234.07944"
         ry="6.2791791"
         transform="matrix(-0.9425568,-0.33404593,-0.31979873,0.9474855,0,0)" />
    </clipPath>
    <clipPath
       clipPathUnits="userSpaceOnUse"
       id="clipPath4638-12">
      <rect
         style="fill:#00aad4;fill-opacity:1"
         id="rect4640-9"
         width="151.79984"
         height="169.94701"
         x="-490.72137"
         y="234.07944"
         ry="6.2791791"
         transform="matrix(-0.9425568,-0.33404593,-0.31979873,0.9474855,0,0)" />
    </clipPath>
    <clipPath
       clipPathUnits="userSpaceOnUse"
       id="clipPath4638-4">
      <rect
         style="fill:#00aad4;fill-opacity:1"
         id="rect4640-2"
         width="151.79984"
         height="169.94701"
         x="-490.72137"
         y="234.07944"
         ry="6.2791791"
         transform="matrix(-0.9425568,-0.33404593,-0.31979873,0.9474855,0,0)" />
    </clipPath>
    <clipPath
       clipPathUnits="userSpaceOnUse"
       id="clipPath4638-0">
      <rect
         style="fill:#00aad4;fill-opacity:1"
         id="rect4640-99"
         width="151.79984"
         height="169.94701"
         x="-490.72137"
         y="234.07944"
         ry="6.2791791"
         transform="matrix(-0.9425568,-0.33404593,-0.31979873,0.9474855,0,0)" />
    </clipPath>
    <filter
       inkscape:label="Apparition"
       inkscape:menu="Blurs"
       inkscape:menu-tooltip="Edges are partly feathered out"
       style="color-interpolation-filters:sRGB"
       id="filter8147">
      <feMorphology
         radius="4"
         in="SourceGraphic"
         result="result0"
         id="feMorphology8149" />
      <feGaussianBlur
         in="result0"
         stdDeviation="8"
         result="result91"
         id="feGaussianBlur8151" />
      <feComposite
         operator="in"
         in="SourceGraphic"
         in2="result91"
         id="feComposite8153" />
    </filter>
    <filter
       inkscape:label="Apparition"
       inkscape:menu="Blurs"
       inkscape:menu-tooltip="Edges are partly feathered out"
       style="color-interpolation-filters:sRGB"
       id="filter3529-1">
      <feMorphology
         radius="4"
         in="SourceGraphic"
         result="result0"
         id="feMorphology3531-7" />
      <feGaussianBlur
         in="result0"
         stdDeviation="8"
         result="result91"
         id="feGaussianBlur3533-6" />
      <feComposite
         operator="in"
         in="SourceGraphic"
         in2="result91"
         id="feComposite3535-8" />
    </filter>
    <filter
       inkscape:label="Apparition"
       inkscape:menu="Blurs"
       inkscape:menu-tooltip="Edges are partly feathered out"
       style="color-interpolation-filters:sRGB"
       id="filter3529-9">
      <feMorphology
         radius="4"
         in="SourceGraphic"
         result="result0"
         id="feMorphology3531-3" />
      <feGaussianBlur
         in="result0"
         stdDeviation="8"
         result="result91"
         id="feGaussianBlur3533-2" />
      <feComposite
         operator="in"
         in="SourceGraphic"
         in2="result91"
         id="feComposite3535-1" />
    </filter>
    <filter
       style="color-interpolation-filters:sRGB"
       inkscape:label="Blur"
       id="filter3435">
      <feGaussianBlur
         stdDeviation="2 2"
         result="blur"
         id="feGaussianBlur3437" />
    </filter>
    <filter
       inkscape:label="Apparition"
       inkscape:menu="Blurs"
       inkscape:menu-tooltip="Edges are partly feathered out"
       style="color-interpolation-filters:sRGB"
       id="filter3473">
      <feMorphology
         radius="4"
         in="SourceGraphic"
         result="result0"
         id="feMorphology3475" />
      <feGaussianBlur
         in="result0"
         stdDeviation="8"
         result="result91"
         id="feGaussianBlur3477" />
      <feComposite
         operator="in"
         in="SourceGraphic"
         in2="result91"
         id="feComposite3479" />
    </filter>
    <filter
       inkscape:label="Apparition"
       inkscape:menu="Blurs"
       inkscape:menu-tooltip="Edges are partly feathered out"
       style="color-interpolation-filters:sRGB"
       id="filter3529">
      <feMorphology
         radius="4"
         in="SourceGraphic"
         result="result0"
         id="feMorphology3531" />
      <feGaussianBlur
         in="result0"
         stdDeviation="8"
         result="result91"
         id="feGaussianBlur3533" />
      <feComposite
         operator="in"
         in="SourceGraphic"
         in2="result91"
         id="feComposite3535" />
    </filter>
    <filter
       inkscape:label="Apparition"
       inkscape:menu="Blurs"
       inkscape:menu-tooltip="Edges are partly feathered out"
       style="color-interpolation-filters:sRGB"
       id="filter8147-5">
      <feMorphology
         radius="4"
         in="SourceGraphic"
         result="result0"
         id="feMorphology8149-7" />
      <feGaussianBlur
         in="result0"
         stdDeviation="8"
         result="result91"
         id="feGaussianBlur8151-6" />
      <feComposite
         operator="in"
         in="SourceGraphic"
         in2="result91"
         id="feComposite8153-3" />
    </filter>
    <filter
       inkscape:label="Apparition"
       inkscape:menu="Blurs"
       inkscape:menu-tooltip="Edges are partly feathered out"
       style="color-interpolation-filters:sRGB"
       id="filter3529-1-8">
      <feMorphology
         radius="4"
         in="SourceGraphic"
         result="result0"
         id="feMorphology3531-7-1" />
      <feGaussianBlur
         in="result0"
         stdDeviation="8"
         result="result91"
         id="feGaussianBlur3533-6-5" />
      <feComposite
         operator="in"
         in="SourceGraphic"
         in2="result91"
         id="feComposite3535-8-7" />
    </filter>
    <filter
       inkscape:label="Apparition"
       inkscape:menu="Blurs"
       inkscape:menu-tooltip="Edges are partly feathered out"
       style="color-interpolation-filters:sRGB"
       id="filter3529-9-3">
      <feMorphology
         radius="4"
         in="SourceGraphic"
         result="result0"
         id="feMorphology3531-3-0" />
      <feGaussianBlur
         in="result0"
         stdDeviation="8"
         result="result91"
         id="feGaussianBlur3533-2-0" />
      <feComposite
         operator="in"
         in="SourceGraphic"
         in2="result91"
         id="feComposite3535-1-8" />
    </filter>
    <filter
       style="color-interpolation-filters:sRGB"
       inkscape:label="Blur"
       id="filter3435-5">
      <feGaussianBlur
         stdDeviation="2 2"
         result="blur"
         id="feGaussianBlur3437-7" />
    </filter>
    <filter
       inkscape:label="Apparition"
       inkscape:menu="Blurs"
       inkscape:menu-tooltip="Edges are partly feathered out"
       style="color-interpolation-filters:sRGB"
       id="filter3473-5">
      <feMorphology
         radius="4"
         in="SourceGraphic"
         result="result0"
         id="feMorphology3475-1" />
      <feGaussianBlur
         in="result0"
         stdDeviation="8"
         result="result91"
         id="feGaussianBlur3477-6" />
      <feComposite
         operator="in"
         in="SourceGraphic"
         in2="result91"
         id="feComposite3479-9" />
    </filter>
    <filter
       inkscape:label="Apparition"
       inkscape:menu="Blurs"
       inkscape:menu-tooltip="Edges are partly feathered out"
       style="color-interpolation-filters:sRGB"
       id="filter3529-2">
      <feMorphology
         radius="4"
         in="SourceGraphic"
         result="result0"
         id="feMorphology3531-78" />
      <feGaussianBlur
         in="result0"
         stdDeviation="8"
         result="result91"
         id="feGaussianBlur3533-27" />
      <feComposite
         operator="in"
         in="SourceGraphic"
         in2="result91"
         id="feComposite3535-80" />
    </filter>
    <filter
       inkscape:label="Apparition"
       inkscape:menu="Blurs"
       inkscape:menu-tooltip="Edges are partly feathered out"
       style="color-interpolation-filters:sRGB"
       id="filter8147-5-9">
      <feMorphology
         radius="4"
         in="SourceGraphic"
         result="result0"
         id="feMorphology8149-7-6" />
      <feGaussianBlur
         in="result0"
         stdDeviation="8"
         result="result91"
         id="feGaussianBlur8151-6-0" />
      <feComposite
         operator="in"
         in="SourceGraphic"
         in2="result91"
         id="feComposite8153-3-5" />
    </filter>
    <clipPath
       clipPathUnits="userSpaceOnUse"
       id="clipPath5180">
      <rect
         style="fill:#fffea5;fill-opacity:1;stroke:none;stroke-width:1.1651746;stroke-miterlimit:4;stroke-dasharray:none;stroke-opacity:1"
         id="rect5182"
         width="199.80244"
         height="187.69319"
         x="359.56665"
         y="-331.56573"
         ry="35.214237"
         transform="matrix(0,1,-1,0,0,0)" />
    </clipPath>
    <clipPath
       clipPathUnits="userSpaceOnUse"
       id="clipPath5180-1">
      <rect
         style="fill:#fffea5;fill-opacity:1;stroke:none;stroke-width:1.1651746;stroke-miterlimit:4;stroke-dasharray:none;stroke-opacity:1"
         id="rect5182-7"
         width="199.80244"
         height="187.69319"
         x="359.56665"
         y="-331.56573"
         ry="35.214237"
         transform="matrix(0,1,-1,0,0,0)" />
    </clipPath>
    <clipPath
       clipPathUnits="userSpaceOnUse"
       id="clipPath5180-1-4">
      <rect
         style="fill:#fffea5;fill-opacity:1;stroke:none;stroke-width:1.1651746;stroke-miterlimit:4;stroke-dasharray:none;stroke-opacity:1"
         id="rect5182-7-0"
         width="199.80244"
         height="187.69319"
         x="359.56665"
         y="-331.56573"
         ry="35.214237"
         transform="matrix(0,1,-1,0,0,0)" />
    </clipPath>
    <clipPath
       clipPathUnits="userSpaceOnUse"
       id="clipPath5180-1-4-4">
      <rect
         style="fill:#fffea5;fill-opacity:1;stroke:none;stroke-width:1.1651746;stroke-miterlimit:4;stroke-dasharray:none;stroke-opacity:1"
         id="rect5182-7-0-7"
         width="199.80244"
         height="187.69319"
         x="359.56665"
         y="-331.56573"
         ry="35.214237"
         transform="matrix(0,1,-1,0,0,0)" />
    </clipPath>
    <clipPath
       clipPathUnits="userSpaceOnUse"
       id="clipPath5180-1-4-5">
      <rect
         style="fill:#fffea5;fill-opacity:1;stroke:none;stroke-width:1.1651746;stroke-miterlimit:4;stroke-dasharray:none;stroke-opacity:1"
         id="rect5182-7-0-1"
         width="199.80244"
         height="187.69319"
         x="359.56665"
         y="-331.56573"
         ry="35.214237"
         transform="matrix(0,1,-1,0,0,0)" />
    </clipPath>
    <filter
       inkscape:label="Apparition"
       inkscape:menu="Blurs"
       inkscape:menu-tooltip="Edges are partly feathered out"
       style="color-interpolation-filters:sRGB"
       id="filter3529-1-5">
      <feMorphology
         radius="4"
         in="SourceGraphic"
         result="result0"
         id="feMorphology3531-7-4" />
      <feGaussianBlur
         in="result0"
         stdDeviation="8"
         result="result91"
         id="feGaussianBlur3533-6-8" />
      <feComposite
         operator="in"
         in="SourceGraphic"
         in2="result91"
         id="feComposite3535-8-5" />
    </filter>
    <filter
       inkscape:label="Apparition"
       inkscape:menu="Blurs"
       inkscape:menu-tooltip="Edges are partly feathered out"
       style="color-interpolation-filters:sRGB"
       id="filter3529-9-9">
      <feMorphology
         radius="4"
         in="SourceGraphic"
         result="result0"
         id="feMorphology3531-3-2" />
      <feGaussianBlur
         in="result0"
         stdDeviation="8"
         result="result91"
         id="feGaussianBlur3533-2-3" />
      <feComposite
         operator="in"
         in="SourceGraphic"
         in2="result91"
         id="feComposite3535-1-1" />
    </filter>
    <filter
       style="color-interpolation-filters:sRGB"
       inkscape:label="Blur"
       id="filter3435-8">
      <feGaussianBlur
         stdDeviation="2 2"
         result="blur"
         id="feGaussianBlur3437-5" />
    </filter>
    <filter
       inkscape:label="Apparition"
       inkscape:menu="Blurs"
       inkscape:menu-tooltip="Edges are partly feathered out"
       style="color-interpolation-filters:sRGB"
       id="filter3473-53">
      <feMorphology
         radius="4"
         in="SourceGraphic"
         result="result0"
         id="feMorphology3475-4" />
      <feGaussianBlur
         in="result0"
         stdDeviation="8"
         result="result91"
         id="feGaussianBlur3477-3" />
      <feComposite
         operator="in"
         in="SourceGraphic"
         in2="result91"
         id="feComposite3479-4" />
    </filter>
    <filter
       inkscape:label="Apparition"
       inkscape:menu="Blurs"
       inkscape:menu-tooltip="Edges are partly feathered out"
       style="color-interpolation-filters:sRGB"
       id="filter3529-0">
      <feMorphology
         radius="4"
         in="SourceGraphic"
         result="result0"
         id="feMorphology3531-5" />
      <feGaussianBlur
         in="result0"
         stdDeviation="8"
         result="result91"
         id="feGaussianBlur3533-1" />
      <feComposite
         operator="in"
         in="SourceGraphic"
         in2="result91"
         id="feComposite3535-3" />
    </filter>
    <filter
       inkscape:label="Apparition"
       inkscape:menu="Blurs"
       inkscape:menu-tooltip="Edges are partly feathered out"
       style="color-interpolation-filters:sRGB"
       id="filter8147-5-2">
      <feMorphology
         radius="4"
         in="SourceGraphic"
         result="result0"
         id="feMorphology8149-7-8" />
      <feGaussianBlur
         in="result0"
         stdDeviation="8"
         result="result91"
         id="feGaussianBlur8151-6-4" />
      <feComposite
         operator="in"
         in="SourceGraphic"
         in2="result91"
         id="feComposite8153-3-0" />
    </filter>
    <clipPath
       clipPathUnits="userSpaceOnUse"
       id="clipPath5839">
      <rect
         style="display:inline;fill:#ffffff;fill-opacity:1;stroke:none;stroke-width:0.5;stroke-miterlimit:4;stroke-dasharray:none;stroke-opacity:1"
         id="rect5841"
         width="406"
         height="538"
         x="156"
         y="240.3622"
         ry="12.71597" />
    </clipPath>
    <clipPath
       clipPathUnits="userSpaceOnUse"
       id="clipPath5852">
      <ellipse
         cy="-807.60529"
         cx="535.83484"
         id="circle5854"
         style="display:inline;fill:#00aad4;fill-opacity:1;stroke:none;stroke-width:0.60000002;stroke-miterlimit:4;stroke-dasharray:none;stroke-opacity:1"
         rx="101.84926"
         ry="161.74863"
         transform="matrix(0,1,-1,0,0,0)" />
    </clipPath>
    <filter
       inkscape:label="Apparition"
       inkscape:menu="Blurs"
       inkscape:menu-tooltip="Edges are partly feathered out"
       style="color-interpolation-filters:sRGB"
       id="filter3473-2">
      <feMorphology
         radius="4"
         in="SourceGraphic"
         result="result0"
         id="feMorphology3475-2" />
      <feGaussianBlur
         in="result0"
         stdDeviation="8"
         result="result91"
         id="feGaussianBlur3477-9" />
      <feComposite
         operator="in"
         in="SourceGraphic"
         in2="result91"
         id="feComposite3479-0" />
    </filter>
    <filter
       style="color-interpolation-filters:sRGB"
       inkscape:label="Blur"
       id="filter3435-9">
      <feGaussianBlur
         stdDeviation="2 2"
         result="blur"
         id="feGaussianBlur3437-1" />
    </filter>
    <filter
       style="color-interpolation-filters:sRGB"
       inkscape:label="Blur"
       id="filter6136">
      <feGaussianBlur
         stdDeviation="3.91586 4.18"
         result="blur"
         id="feGaussianBlur6138" />
    </filter>
    <filter
       style="color-interpolation-filters:sRGB"
       inkscape:label="Blur"
       id="filter6136-5">
      <feGaussianBlur
         stdDeviation="3.91586 4.18"
         result="blur"
         id="feGaussianBlur6138-0" />
    </filter>
    <clipPath
       clipPathUnits="userSpaceOnUse"
       id="clipPath6302">
      <rect
         style="fill:#ffffff;fill-opacity:1;stroke:#bdbdbd;stroke-width:0.73315519;stroke-miterlimit:4;stroke-dasharray:none;stroke-opacity:1"
         id="rect6304"
         width="129.95035"
         height="137.37555"
         x="-8.5632038"
         y="293.8978"
         ry="15.618192" />
    </clipPath>
    <clipPath
       clipPathUnits="userSpaceOnUse"
       id="clipPath6302-6">
      <rect
         style="fill:#ffffff;fill-opacity:1;stroke:#bdbdbd;stroke-width:0.73315519;stroke-miterlimit:4;stroke-dasharray:none;stroke-opacity:1"
         id="rect6304-0"
         width="129.95035"
         height="137.37555"
         x="-8.5632038"
         y="293.8978"
         ry="15.618192" />
    </clipPath>
    <clipPath
       clipPathUnits="userSpaceOnUse"
       id="clipPath4638-2">
      <rect
         style="fill:#00aad4;fill-opacity:1"
         id="rect4640-5"
         width="151.79984"
         height="169.94701"
         x="-490.72137"
         y="234.07944"
         ry="6.2791791"
         transform="matrix(-0.9425568,-0.33404593,-0.31979873,0.9474855,0,0)" />
    </clipPath>
    <filter
       inkscape:label="Apparition"
       inkscape:menu="Blurs"
       inkscape:menu-tooltip="Edges are partly feathered out"
       style="color-interpolation-filters:sRGB"
       id="filter3529-06">
      <feMorphology
         radius="4"
         in="SourceGraphic"
         result="result0"
         id="feMorphology3531-4" />
      <feGaussianBlur
         in="result0"
         stdDeviation="8"
         result="result91"
         id="feGaussianBlur3533-0" />
      <feComposite
         operator="in"
         in="SourceGraphic"
         in2="result91"
         id="feComposite3535-4" />
    </filter>
    <filter
       inkscape:label="Apparition"
       inkscape:menu="Blurs"
       inkscape:menu-tooltip="Edges are partly feathered out"
       style="color-interpolation-filters:sRGB"
       id="filter3529-98">
      <feMorphology
         radius="4"
         in="SourceGraphic"
         result="result0"
         id="feMorphology3531-40" />
      <feGaussianBlur
         in="result0"
         stdDeviation="8"
         result="result91"
         id="feGaussianBlur3533-270" />
      <feComposite
         operator="in"
         in="SourceGraphic"
         in2="result91"
         id="feComposite3535-15" />
    </filter>
    <clipPath
       clipPathUnits="userSpaceOnUse"
       id="clipPath8657">
      <rect
         style="fill:#ececec;fill-opacity:1;stroke:none;stroke-width:0.5;stroke-miterlimit:4;stroke-dasharray:none;stroke-opacity:1"
         id="rect8659"
         width="8.0378799"
         height="8.9170237"
         x="213.5062"
         y="410.08536"
         ry="0.302903" />
    </clipPath>
    <clipPath
       clipPathUnits="userSpaceOnUse"
       id="clipPath8661">
      <rect
         style="fill:#ececec;fill-opacity:1;stroke:none;stroke-width:0.5;stroke-miterlimit:4;stroke-dasharray:none;stroke-opacity:1"
         id="rect8663"
         width="11.240473"
         height="10.926494"
         x="192.59514"
         y="420.38388"
         ry="0.302903" />
    </clipPath>
    <filter
       inkscape:label="Apparition"
       inkscape:menu="Blurs"
       inkscape:menu-tooltip="Edges are partly feathered out"
       style="color-interpolation-filters:sRGB"
       id="filter8147-5-3">
      <feMorphology
         radius="4"
         in="SourceGraphic"
         result="result0"
         id="feMorphology8149-7-2" />
      <feGaussianBlur
         in="result0"
         stdDeviation="8"
         result="result91"
         id="feGaussianBlur8151-6-6" />
      <feComposite
         operator="in"
         in="SourceGraphic"
         in2="result91"
         id="feComposite8153-3-6" />
    </filter>
    <clipPath
       clipPathUnits="userSpaceOnUse"
       id="clipPath8661-9">
      <rect
         style="fill:#ececec;fill-opacity:1;stroke:none;stroke-width:0.5;stroke-miterlimit:4;stroke-dasharray:none;stroke-opacity:1"
         id="rect8663-6"
         width="11.240473"
         height="10.926494"
         x="192.59514"
         y="420.38388"
         ry="0.302903" />
    </clipPath>
    <clipPath
       clipPathUnits="userSpaceOnUse"
       id="clipPath8661-3">
      <rect
         style="fill:#ececec;fill-opacity:1;stroke:none;stroke-width:0.5;stroke-miterlimit:4;stroke-dasharray:none;stroke-opacity:1"
         id="rect8663-68"
         width="11.240473"
         height="10.926494"
         x="192.59514"
         y="420.38388"
         ry="0.302903" />
    </clipPath>
    <clipPath
       clipPathUnits="userSpaceOnUse"
       id="clipPath8661-3-4">
      <rect
         style="fill:#ececec;fill-opacity:1;stroke:none;stroke-width:0.5;stroke-miterlimit:4;stroke-dasharray:none;stroke-opacity:1"
         id="rect8663-68-0"
         width="11.240473"
         height="10.926494"
         x="192.59514"
         y="420.38388"
         ry="0.302903" />
    </clipPath>
    <clipPath
       clipPathUnits="userSpaceOnUse"
       id="clipPath6562">
      <rect
         y="736.28546"
         x="369.81683"
         height="51.618797"
         width="95.459419"
         id="rect6564"
         style="fill:#cccccc;fill-opacity:1;stroke:none;stroke-width:0.5;stroke-miterlimit:4;stroke-dasharray:none;stroke-opacity:1" />
    </clipPath>
    <clipPath
       clipPathUnits="userSpaceOnUse"
       id="clipPath6622">
      <rect
         style="fill:#784421;fill-opacity:1;stroke:none;stroke-width:0.5;stroke-miterlimit:4;stroke-dasharray:none;stroke-opacity:1"
         id="rect6624"
         width="108"
         height="91"
         x="507"
         y="724.36218" />
    </clipPath>
    <clipPath
       clipPathUnits="userSpaceOnUse"
       id="clipPath6304">
      <rect
         style="fill:#00aa00;fill-opacity:1;stroke:none;stroke-opacity:1"
         id="rect6306"
         width="92.281425"
         height="75.561447"
         x="136.09671"
         y="326.42636"
         ry="8.553299" />
    </clipPath>
    <clipPath
       clipPathUnits="userSpaceOnUse"
       id="clipPath6339">
      <rect
         style="fill:#00aad4;fill-opacity:1;stroke:none;stroke-opacity:1"
         id="rect6341"
         width="165.91365"
         height="92.9245"
         x="-42.035385"
         y="320.96021"
         ry="8.553299" />
    </clipPath>
  </defs>
  <sodipodi:namedview
     id="base"
     pagecolor="#ffffff"
     bordercolor="#666666"
     borderopacity="1.0"
     inkscape:pageopacity="0.0"
     inkscape:pageshadow="2"
     inkscape:zoom="0.55957031"
     inkscape:cx="-155.95018"
     inkscape:cy="-83.358728"
     inkscape:document-units="px"
     inkscape:current-layer="layer21"
     showgrid="false"
     inkscape:window-width="1276"
     inkscape:window-height="755"
     inkscape:window-x="4"
     inkscape:window-y="0"
     inkscape:window-maximized="1"
     showguides="true"
     inkscape:snap-global="false"
     fit-margin-top="0"
     fit-margin-left="0"
     fit-margin-right="0"
     fit-margin-bottom="0" />
  <metadata
     id="metadata7">
    <rdf:RDF>
      <cc:Work
         rdf:about="">
        <dc:format>image/svg+xml</dc:format>
        <dc:type
           rdf:resource="http://purl.org/dc/dcmitype/StillImage" />
        <dc:title></dc:title>
      </cc:Work>
    </rdf:RDF>
  </metadata>
  <g
     inkscape:groupmode="layer"
     id="layer21"
     inkscape:label="long bottle"
     style="display:none"
     transform="translate(-1087.8302,-429.72223)">
    <g
       id="g6428"
       transform="matrix(9.7294971,0,0,1,-10016.373,364.8671)"
       style="display:inline;fill:#00aad4;fill-opacity:1">
      <rect
         ry="0"
         y="64.877266"
         x="897.64612"
         height="9.5459414"
         width="243.95184"
         id="rect6392"
         style="fill:#00aad4;fill-opacity:1;stroke:none;stroke-opacity:1" />
      <rect
         style="fill:#00aad4;fill-opacity:1;stroke:none;stroke-opacity:1"
         id="rect6396"
         width="243.95184"
         height="9.5459414"
         x="897.64612"
         y="171.04326"
         ry="0" />
    </g>
  </g>
  <g
     inkscape:groupmode="layer"
     id="layer1"
     inkscape:label="long bottle back"
     style="display:none"
     transform="translate(-1087.8302,-429.72223)">
    <g
       id="g6424"
       style="display:inline;fill:#00aad4;fill-opacity:1"
       transform="translate(-2174.7172,364.8671)">
      <path
         sodipodi:nodetypes="cscssccc"
         inkscape:connector-curvature="0"
         id="path6333"
         d="m 873.78588,69.650444 c -8.57213,6.131171 -10.38805,11.040263 -12.50629,21.926843 -0.76326,3.922615 -1.50067,29.266003 -1.51223,33.720283 4.80211,0.0426 11.14812,1.8769 11.1183,-2.45566 -0.12666,-18.40081 2.28641,-34.375305 6.15985,-39.515123 1.03479,-1.373103 2.83232,-8.857112 21.44548,-8.93353 l -0.46272,-9.501514 c -8.45712,-0.267575 -17.51036,0.823266 -24.24239,4.758701 z"
         style="display:inline;fill:#00aad4;fill-opacity:1;stroke:none;stroke-width:0.245;stroke-miterlimit:4;stroke-dasharray:none;stroke-opacity:1"
         inkscape:export-xdpi="368.22684"
         inkscape:export-ydpi="368.22684" />
      <path
         inkscape:export-ydpi="368.22684"
         inkscape:export-xdpi="368.22684"
         style="display:inline;fill:#00aad4;fill-opacity:1;stroke:none;stroke-width:0.245;stroke-miterlimit:4;stroke-dasharray:none;stroke-opacity:1"
         d="m 873.78588,175.81919 c -8.57213,-6.13118 -10.38805,-11.04027 -12.50629,-21.92685 -0.76326,-3.92261 -1.50067,-29.266 -1.51223,-33.72028 4.80211,-0.0426 11.14812,-1.8769 11.1183,2.45566 -0.12666,18.40081 2.28641,34.3753 6.15985,39.51512 1.03479,1.37311 2.83232,8.85711 21.44548,8.93353 l -0.46272,9.50152 c -8.45712,0.26757 -17.51036,-0.82327 -24.24239,-4.7587 z"
         id="path6394"
         inkscape:connector-curvature="0"
         sodipodi:nodetypes="cscssccc" />
    </g>
  </g>
  <g
     inkscape:groupmode="layer"
     id="layer2"
     inkscape:label="long bottle front"
     style="display:inline"
     transform="translate(-1087.8302,-429.72223)">
    <g
       id="g6416"
       transform="translate(-47.797254,364.8671)"
       style="display:inline;fill:#00aad4;fill-opacity:1">
      <g
         style="fill:#00aad4;fill-opacity:1"
         transform="matrix(1.9330967,1.9330967,-1.9330967,1.9330967,1538.637,-659.91647)"
         id="g6324">
        <path
           sodipodi:nodetypes="sscssssscscs"
           inkscape:connector-curvature="0"
           id="path6327"
           d="m 122.20151,277.85961 c -0.62252,-0.29096 -1.19569,-0.81109 -0.90507,-1.36343 l 0.22183,-1.41285 -0.71852,-1.66022 c -0.13168,-0.30425 2.491,-1.0045 3.53653,-2.24112 1.04555,-1.23661 2.51606,-3.10953 3.38772,-4.16204 1.66364,-2.00878 2.33797,-2.49604 3.00077,-2.29279 0.24184,0.0742 0.48967,0.29286 0.77279,0.48845 0.76217,0.52654 3.26219,2.53368 3.7071,2.9686 0.11183,0.10925 0.78886,2.92666 -3.80303,5.96679 l -5.70236,5.34337 z"
           style="display:inline;fill:#00aad4;fill-opacity:1;stroke:none;stroke-width:0.245;stroke-miterlimit:4;stroke-dasharray:none;stroke-opacity:1"
           inkscape:export-xdpi="368.22684"
           inkscape:export-ydpi="368.22684" />
        <path
           sodipodi:nodetypes="cscscccc"
           inkscape:connector-curvature="0"
           id="path6329"
           d="m 129.85939,281.27288 c -0.15007,0.13889 -0.01,0.22159 -0.86161,-0.3413 -0.91043,-0.60175 -3.07293,-2.2985 -3.56723,-2.77616 -0.13342,-0.12954 0.93733,-1.1212 4.84113,-5.025 l 4.94597,-4.94598 0.49955,0.5 c 1.6236,1.62748 2.88312,3.92832 2.67223,4.22797 -2.85788,2.76903 -5.26276,5.13796 -8.52993,8.36036 z"
           style="display:inline;fill:#00aad4;fill-opacity:1;stroke:none;stroke-width:0.245;stroke-miterlimit:4;stroke-dasharray:none;stroke-opacity:1"
           inkscape:export-xdpi="368.22684"
           inkscape:export-ydpi="368.22684" />
        <path
           sodipodi:nodetypes="cssscccccssccc"
           inkscape:connector-curvature="0"
           id="path6331"
           d="m 130.45768,264.83495 c 0,0 -0.61267,0.55052 -0.97459,1.01043 -0.42543,0.5406 -1.90624,2.30243 -3.25342,3.95013 -1.34716,1.6477 -2.743,3.27995 -3.05723,3.66763 -0.31425,0.38769 -0.56534,0.74929 -0.62361,0.80774 l -0.12285,0.16088 -0.25154,-0.40151 2e-5,2e-5 c -0.11812,-0.19272 -0.30384,-0.5326 -0.33446,-0.58417 -0.0708,-0.11929 -0.0535,0.0804 2.27908,-2.69482 1.03995,-1.23737 2.31483,-2.75744 2.83303,-3.3779 2.02413,-2.42356 2.6758,-3.19542 2.69476,-3.19182 0.0106,0.002 0.31494,0.0833 0.50951,0.21865 0.18696,0.0839 0.41375,0.19743 0.62941,0.35083"
           style="display:inline;fill:#00aad4;fill-opacity:1;stroke:none;stroke-width:0.245;stroke-miterlimit:4;stroke-dasharray:none;stroke-opacity:1"
           inkscape:export-xdpi="368.22684"
           inkscape:export-ydpi="368.22684" />
      </g>
      <path
         inkscape:export-ydpi="368.22684"
         inkscape:export-xdpi="368.22684"
         style="display:inline;fill:#00aad4;fill-opacity:1;stroke:none;stroke-width:0.245;stroke-miterlimit:4;stroke-dasharray:none;stroke-opacity:1"
         d="m 1135.988,74.36599 c 15.5002,0.89028 18.4988,7.16267 19.955,13.30016 1.5492,6.52878 1.581,28.39084 1.9682,37.60772 0.145,3.449 81.6973,-1.3329 81.6973,-1.41446 0,-0.8887 9.6819,2.18924 9.5049,0.17957 -0.1829,-4.54578 1.4391,-32.58693 -1.1003,-32.90543 -2.0181,-0.0339 -10.5652,-2.39899 -13.6062,1.12447 -2.0649,2.39256 1.7375,6.03325 -0.9359,8.02292 -7.1315,5.3075 -46.389,0.0768 -53.4803,-1.61827 -4.4371,-3.56513 -18.2149,-19.77653 -20.3097,-22.88482 -6.0133,-8.92271 -8.6412,-11.3621 -24.0535,-10.86064 z"
         id="path6410"
         inkscape:connector-curvature="0"
         sodipodi:nodetypes="csssccsscscc" />
      <path
         sodipodi:nodetypes="csssccsscscc"
         inkscape:connector-curvature="0"
         id="path6412"
         d="m 1135.988,171.10364 c 15.5002,-0.89028 18.4988,-7.16267 19.955,-13.30016 1.5492,-6.52878 1.581,-28.39084 1.9682,-37.60772 0.145,-3.449 81.6973,1.3329 81.6973,1.41446 0,0.8887 9.6819,-2.18924 9.5049,-0.17957 -0.1829,4.54578 1.4391,32.58693 -1.1003,32.90543 -2.0181,0.0339 -10.5652,2.39899 -13.6062,-1.12447 -2.0649,-2.39256 1.7375,-6.03325 -0.9359,-8.02292 -7.1315,-5.3075 -46.389,-0.0768 -53.4803,1.61827 -4.4371,3.56513 -18.2149,19.77653 -20.3097,22.88482 -6.0133,8.92271 -8.6412,11.3621 -24.0535,10.86064 z"
         style="display:inline;fill:#00aad4;fill-opacity:1;stroke:none;stroke-width:0.245;stroke-miterlimit:4;stroke-dasharray:none;stroke-opacity:1"
         inkscape:export-xdpi="368.22684"
         inkscape:export-ydpi="368.22684" />
    </g>
  </g>
</svg>
