<?xml version="1.0" encoding="UTF-8" standalone="no"?>
<!-- Created with Inkscape (http://www.inkscape.org/) -->

<svg
   xmlns:dc="http://purl.org/dc/elements/1.1/"
   xmlns:cc="http://creativecommons.org/ns#"
   xmlns:rdf="http://www.w3.org/1999/02/22-rdf-syntax-ns#"
   xmlns:svg="http://www.w3.org/2000/svg"
   xmlns="http://www.w3.org/2000/svg"
   xmlns:sodipodi="http://sodipodi.sourceforge.net/DTD/sodipodi-0.dtd"
   xmlns:inkscape="http://www.inkscape.org/namespaces/inkscape"
   width="146"
   height="150"
   viewBox="0 0 146 150"
   id="svg6447"
   version="1.1"
   inkscape:version="0.91 r13725"
   sodipodi:docname="bottle.svg">
  <defs
     id="defs6449">
    <clipPath
       clipPathUnits="userSpaceOnUse"
       id="clipPath4638-2">
      <rect
         style="fill:#00aad4;fill-opacity:1"
         id="rect4640-5"
         width="151.79984"
         height="169.94701"
         x="-490.72137"
         y="234.07944"
         ry="6.2791791"
         transform="matrix(-0.9425568,-0.33404593,-0.31979873,0.9474855,0,0)" />
    </clipPath>
    <clipPath
       clipPathUnits="userSpaceOnUse"
       id="clipPath7005">
      <rect
         style="fill:#00aad4;fill-opacity:1"
         id="rect7007"
         width="151.79984"
         height="169.94701"
         x="-490.72137"
         y="234.07944"
         ry="6.2791791"
         transform="matrix(-0.9425568,-0.33404593,-0.31979873,0.9474855,0,0)" />
    </clipPath>
    <clipPath
       clipPathUnits="userSpaceOnUse"
       id="clipPath7009">
      <rect
         style="fill:#00aad4;fill-opacity:1"
         id="rect7011"
         width="151.79984"
         height="169.94701"
         x="-490.72137"
         y="234.07944"
         ry="6.2791791"
         transform="matrix(-0.9425568,-0.33404593,-0.31979873,0.9474855,0,0)" />
    </clipPath>
  </defs>
  <sodipodi:namedview
     id="base"
     pagecolor="#ffffff"
     bordercolor="#666666"
     borderopacity="1.0"
     inkscape:pageopacity="0.0"
     inkscape:pageshadow="2"
     inkscape:zoom="1.979899"
     inkscape:cx="60.973119"
     inkscape:cy="139.26155"
     inkscape:document-units="px"
     inkscape:current-layer="g6371"
     showgrid="false"
     inkscape:window-width="1276"
     inkscape:window-height="755"
     inkscape:window-x="4"
     inkscape:window-y="0"
     inkscape:window-maximized="1"
     fit-margin-top="0"
     fit-margin-left="0"
     fit-margin-right="0"
     fit-margin-bottom="0"
     units="px" />
  <metadata
     id="metadata6452">
    <rdf:RDF>
      <cc:Work
         rdf:about="">
        <dc:format>image/svg+xml</dc:format>
        <dc:type
           rdf:resource="http://purl.org/dc/dcmitype/StillImage" />
        <dc:title></dc:title>
      </cc:Work>
    </rdf:RDF>
  </metadata>
  <g
     inkscape:label="Layer 1"
     inkscape:groupmode="layer"
     id="layer1"
     transform="translate(-859.22624,-281.27879)">
    <g
       style="display:inline"
       id="g6371"
       transform="translate(-412.58757,-602.75149)">
      <g
         id="g6237"
         transform="matrix(0.83707298,-0.15061319,0.15061319,0.83707298,1036.7323,621.65354)"
         inkscape:export-xdpi="301.52682"
         inkscape:export-ydpi="301.52682"
         style="display:inline">
        <path
           sodipodi:nodetypes="sscsssscscs"
           inkscape:connector-curvature="0"
           id="path6239"
           d="m 356.50323,402.46789 c -0.70248,-1.10476 -1.70515,-2.88255 -2.23036,-3.94937 l -0.95528,-1.93947 0.82785,-0.79603 c 0.45533,-0.43773 2.75049,-2.43154 5.10047,-4.43056 2.35001,-1.99899 5.88116,-5.03126 7.84702,-6.7383 5.12115,-4.4469 4.4164,-4.16612 6.1793,-2.46143 1.26873,1.22685 5.34324,5.77736 6.04417,6.7333 0.17614,0.24024 -2.19663,1.74481 -10.72764,7.85242 l -10.78382,7.77574 z"
           style="display:inline;fill:#a05a2c;fill-opacity:1;stroke:none;stroke-width:0.245;stroke-miterlimit:4;stroke-dasharray:none;stroke-opacity:1"
           inkscape:export-xdpi="368.22684"
           inkscape:export-ydpi="368.22684" />
        <path
           sodipodi:nodetypes="cscscccc"
           inkscape:connector-curvature="0"
           id="path6241"
           d="m 365.19645,411.82441 c -0.32536,0.21424 -0.0871,0.4134 -1.51325,-0.90966 -1.52404,-1.41433 -5.06067,-5.27641 -5.84117,-6.32803 -0.21016,-0.28522 2.1107,-1.81576 10.66301,-7.93863 l 10.83549,-7.75746 0.78354,1.09513 c 2.54524,3.56421 4.19674,8.28077 3.70714,8.77839 -6.23331,4.31541 -11.49064,8.01972 -18.63432,13.05993 z"
           style="display:inline;fill:#784421;fill-opacity:1;stroke:none;stroke-width:0.245;stroke-miterlimit:4;stroke-dasharray:none;stroke-opacity:1"
           inkscape:export-xdpi="368.22684"
           inkscape:export-ydpi="368.22684" />
        <path
           sodipodi:nodetypes="cssscccccssccc"
           inkscape:connector-curvature="0"
           id="path6243"
           d="m 371.43592,381.11381 c 0,0 -1.32286,0.8441 -2.14624,1.59592 -0.96791,0.88375 -4.29944,3.7345 -7.34428,6.41232 -3.04484,2.67784 -6.17637,5.3115 -6.88762,5.94238 -0.71131,0.63091 -1.29579,1.23243 -1.42346,1.32416 l -0.28095,0.26421 -0.34796,-0.83292 0,5e-5 c -0.16196,-0.39904 -0.40542,-1.09563 -0.44684,-1.20207 -0.096,-0.24624 -0.12566,0.13468 5.12227,-4.35602 2.33975,-2.00217 5.20897,-4.4626 6.37606,-5.46757 4.5587,-3.92548 6.02374,-5.17349 6.05829,-5.16083 0.0194,0.006 0.56606,0.25449 0.88962,0.56954 0.32531,0.21585 0.71626,0.49982 1.07389,0.85524"
           style="display:inline;fill:#deaa87;fill-opacity:1;stroke:none;stroke-width:0.245;stroke-miterlimit:4;stroke-dasharray:none;stroke-opacity:1"
           inkscape:export-xdpi="368.22684"
           inkscape:export-ydpi="368.22684" />
        <path
           sodipodi:nodetypes="cssccccssccssccssccscc"
           inkscape:connector-curvature="0"
           id="path6245"
           d="m 232.53703,530.65352 c -2.27972,1.29915 -4.60867,1.97658 -7.2962,2.12232 -4.82113,0.26147 -9.42612,-1.85672 -14.53403,-6.68526 -1.84048,-1.73976 -6.03713,-6.58711 -7.68637,-8.87819 l -0.9172,-1.37301 1.23207,-0.85238 1.26509,-0.90548 1.55623,2.17372 c 5.29182,7.39155 12.94203,13.65909 17.12351,14.02866 1.05755,0.0933 2.94789,-0.25692 3.07459,-0.56993 -7.73677,-3.4777 -14.08981,-11.98721 -18.54505,-17.87646 l 70.41278,-50.46418 c 38.49242,-27.58723 78.89618,-57.12889 78.95241,-57.05039 0.32763,0.45807 4.53644,-4.20429 5.18671,-3.10335 1.53169,2.06954 14.11565,16.92733 12.71382,18.35784 -1.02745,0.76203 -4.55933,5.13406 -7.42625,4.44024 -1.94679,-0.47107 -2.82654,-5.24118 -4.93827,-5.28018 -5.63303,-0.10407 -9.95718,6.89133 -9.5804,7.94276 3.66864,13.9923 0.89284,16.5269 -9.50615,24.36354 -1.30828,1.23054 -9.66614,7.26255 -55.56612,40.10325 -30.70499,21.96891 -54.67147,39.02256 -55.52101,39.50674 z"
           style="display:inline;fill:#80e5ff;fill-opacity:1;stroke:none;stroke-width:0.245;stroke-miterlimit:4;stroke-dasharray:none;stroke-opacity:1"
           inkscape:export-xdpi="368.22684"
           inkscape:export-ydpi="368.22684" />
        <path
           sodipodi:nodetypes="cssccccsssscccccccssscccccccssssssscc"
           inkscape:connector-curvature="0"
           id="path6247"
           d="m 201.68785,515.28001 c -1.26865,-1.79125 -4.80366,-7.86883 -5.87901,-10.10815 -4.3152,-8.98557 -4.4549,-16.1635 -0.41988,-21.57506 l 1.29326,-1.73447 56.41828,-40.3915 56.41831,-40.39153 c 6.96737,-3.5418 11.4136,-7.07038 17.28291,-4.56087 5.6485,2.81291 5.83976,2.92257 9.39858,4.88648 0.43203,0.23841 1.42359,0.24066 2.14587,-0.25985 0.76526,-0.5303 9.83337,-4.33196 7.03968,-8.05318 -2.12023,-2.82422 -3.4391,-3.59505 -3.00943,-5.04831 0.90371,-3.05675 6.42648,-4.83753 6.6219,-4.94661 1.94186,0.80102 13.46159,17.88443 13.25508,18.09712 -2.05605,1.43625 -3.22556,2.28262 -5.05182,3.57378 l -10.61951,7.80205 -68.2669,48.904 -70.48922,50.37059 c -4.90344,-6.64116 -7.0509,-13.7092 -8.98522,-20.63748 -0.33152,-1.1904 -0.0179,-4.42691 -0.0987,-4.42317 -0.44847,0.0205 -1.4753,1.44766 -1.99707,2.77494 -1.71987,4.37504 0.30662,11.78994 5.75303,21.05065 l 2.19154,3.57527 -1.28475,0.91944 -1.21479,0.88495 -0.50276,-0.70894 z m 124.36865,-115.614 c -4.04995,-3.02134 -10.42111,0.94307 -13.71963,2.5119 -1.91011,0.92173 -3.62913,2.08771 -21.19927,14.38021 -34.6653,24.25263 -86.63236,61.71172 -88.78122,63.99563 -0.65043,0.69132 -0.007,0.53262 1.46402,-0.36077 5.8776,-3.57098 42.14149,-27.38131 85.86869,-59.78164 20.64447,-15.29671 21.81865,-15.42986 23.41196,-16.36482 3.51432,-2.06214 6.26344,-3.73778 10.48342,-2.53145 3.77164,1.07815 6.88386,3.22405 10.57399,3.73874 2.06804,0.28848 4.69126,0.35902 4.65114,0.0864 -4.81041,-1.9102 -8.59472,-3.23057 -12.75308,-5.67433 z"
           style="display:inline;fill:#aaeeff;fill-opacity:1;stroke:none;stroke-width:0.245;stroke-miterlimit:4;stroke-dasharray:none;stroke-opacity:1"
           inkscape:export-xdpi="368.22684"
           inkscape:export-ydpi="368.22684" />
        <path
           style="display:inline;fill:#d5f6ff;fill-opacity:1;stroke:none;stroke-width:0.245;stroke-miterlimit:4;stroke-dasharray:none;stroke-opacity:1"
           d="m 348.22391,385.82706 c -2.11143,-0.075 -2.76422,0.38872 -3.9564,1.24264 9.94003,10.11289 21.09389,24.50476 25.91167,34.11504 -0.009,0.65043 2.09646,-0.61477 3.2317,-2.12991 -8.40113,-10.97962 -16.35789,-21.80972 -25.18688,-33.22747 z"
           id="path6249"
           inkscape:connector-curvature="0"
           sodipodi:nodetypes="ccccc"
           inkscape:export-xdpi="368.22684"
           inkscape:export-ydpi="368.22684" />
        <path
           style="display:inline;fill:#d5f6ff;fill-opacity:1;stroke:none;stroke-width:0.245;stroke-miterlimit:4;stroke-dasharray:none;stroke-opacity:1"
           d="m 337.24363,405.47265 c -3.21683,-0.0727 -4.72676,-0.17961 -8.558,-1.80032 -5.03896,-2.13077 -6.85793,-2.81589 -9.2226,-2.42979 -3.73923,0.61021 -8.97352,4.40944 -25.63293,16.53834 -26.62281,19.4134 -53.21676,39.32861 -82.0798,57.58178 -2.59293,1.31937 -8.78002,6.01928 -10.07796,5.78492 4.07139,-4.50105 9.463,-8.04661 15.0517,-11.71831 17.77686,-12.75073 79.66935,-57.3766 90.81903,-64.59237 3.18813,-2.06327 4.12425,-2.72258 6.65681,-3.95863 1.58271,-0.77263 3.84141,-1.58722 4.58721,-1.84796 2.73218,-0.95568 5.18379,-0.79531 6.74645,0.0826 3.9114,2.19719 6.22113,3.22586 11.06808,5.11321 1.24836,0.48609 2.42002,0.96141 2.445,0.99628 0.10791,0.15127 -0.21168,0.33238 -1.28819,0.30772 z"
           id="path6251"
           inkscape:connector-curvature="0"
           sodipodi:nodetypes="cssccccsssssscc"
           inkscape:export-xdpi="368.22684"
           inkscape:export-ydpi="368.22684" />
        <path
           style="display:inline;fill:#d5f6ff;fill-opacity:1;stroke:none;stroke-width:0.245;stroke-miterlimit:4;stroke-dasharray:none;stroke-opacity:1"
           d="m 224.10717,530.41144 c -5.1357,0.14564 -15.6651,-9.14667 -21.68839,-19.43231 -5.81876,-9.9364 -6.21629,-14.14935 -6.31934,-19.37711 -0.0392,-1.98645 1.80468,-4.9538 2.55226,-4.88119 0.34708,0.0338 0.0186,2.04541 0.0203,2.69553 0.005,1.86128 2.07377,7.76636 4.01599,12.66876 3.50296,8.84149 14.4859,22.27121 21.71305,26.5348 1.04324,0.61544 1.92988,1.08567 1.91037,1.20366 -0.0189,0.118 -1.22303,0.5601 -2.20432,0.58783 z"
           id="path6253"
           inkscape:connector-curvature="0"
           sodipodi:nodetypes="sssssssss"
           inkscape:export-xdpi="368.22684"
           inkscape:export-ydpi="368.22684" />
      </g>
    </g>
  </g>
</svg>
