<?xml version="1.0" encoding="utf-8"?>
<!-- Generator: Adobe Illustrator 16.0.0, SVG Export Plug-In . SVG Version: 6.00 Build 0)  -->
<!DOCTYPE svg PUBLIC "-//W3C//DTD SVG 1.1//EN" "http://www.w3.org/Graphics/SVG/1.1/DTD/svg11.dtd">
<svg version="1.1" id="图层_1" xmlns="http://www.w3.org/2000/svg" xmlns:xlink="http://www.w3.org/1999/xlink" x="0px" y="0px"
	 width="1800px" height="600px" viewBox="0 0 1800 600" enable-background="new 0 0 1800 600" xml:space="preserve">
<g>
	<path fill="#84E5FD" d="M1781.569,579.353C1702.541,599.333,1686.818,473,1605.305,473s-81.514,108-163.028,108
		s-81.515-108-163.029-108s-81.515,108-163.03,108c-81.514,0-81.514-108-163.028-108c-81.513,0-81.513,108-163.026,108
		c-81.514,0-81.514-108-163.028-108c-81.516,0-81.516,108-163.031,108c-81.515,0-81.515-108-163.029-108
		c-81.519,0-81.519,108-163.037,108c-81.518,0-70.771-86.377-149.804-106.354C-31.744,469.598-79,506.396-79,485.791
		c0-20.605,108-20.605,108-41.211s-108-20.605-108-41.212c0-20.605,108-20.605,108-41.211c0-20.603-108-20.603-108-41.206
		c0-20.605,108-20.605,108-41.211c0-20.606-108-20.606-108-41.212c0-20.606,108-20.606,108-41.213c0-20.606-108-20.606-108-41.212
		c0-20.609,108-20.609,108-41.218s-87.216-88.519-67.236-93.57c79.027-19.98,94.75,106.353,176.264,106.353s81.514-108,163.029-108
		s81.515,108,163.029,108s81.515-108,163.03-108c81.514,0,81.514,108,163.028,108c81.513,0,81.513-108,163.027-108
		c81.515,0,81.515,108,163.028,108c81.516,0,81.516-108,163.031-108c81.515,0,81.515,108,163.029,108
		c81.518,0,81.518-108,163.036-108s70.771,86.377,149.805,106.354c19.976,5.049,67.232-31.749,67.232-11.145
		c0,20.606-108,20.606-108,41.211c0,20.606,108,20.606,108,41.212c0,20.605-108,20.605-108,41.21c0,20.603,108,20.603,108,41.206
		c0,20.606-108,20.606-108,41.211c0,20.606,108,20.606,108,41.212c0,20.606-108,20.606-108,41.213s108,20.606,108,41.213
		c0,20.609-111.425,34.646-106.312,54.611C1728.272,547.031,1801.549,574.301,1781.569,579.353z"/>
	<path fill="none" stroke="#84E5FD" stroke-miterlimit="10" d="M1781.569,579.353C1702.541,599.333,1686.818,473,1605.305,473
		s-81.514,108-163.028,108s-81.515-108-163.029-108s-81.515,108-163.03,108c-81.514,0-81.514-108-163.028-108
		c-81.513,0-81.513,108-163.026,108c-81.514,0-81.514-108-163.028-108c-81.516,0-81.516,108-163.031,108
		c-81.515,0-81.515-108-163.029-108c-81.519,0-81.519,108-163.037,108c-81.518,0-70.771-86.377-149.804-106.354
		C-31.744,469.598-79,506.396-79,485.791c0-20.605,108-20.605,108-41.211s-108-20.605-108-41.212c0-20.605,108-20.605,108-41.211
		c0-20.603-108-20.603-108-41.206c0-20.605,108-20.605,108-41.211c0-20.606-108-20.606-108-41.212c0-20.606,108-20.606,108-41.213
		c0-20.606-108-20.606-108-41.212c0-20.609,108-20.609,108-41.218s-87.216-88.519-67.236-93.57
		c79.027-19.98,94.75,106.353,176.264,106.353s81.514-108,163.029-108s81.515,108,163.029,108s81.515-108,163.03-108
		c81.514,0,81.514,108,163.028,108c81.513,0,81.513-108,163.027-108c81.515,0,81.515,108,163.028,108
		c81.516,0,81.516-108,163.031-108c81.515,0,81.515,108,163.029,108c81.518,0,81.518-108,163.036-108s70.771,86.377,149.805,106.354
		c19.976,5.049,67.232-31.749,67.232-11.145c0,20.606-108,20.606-108,41.211c0,20.606,108,20.606,108,41.212
		c0,20.605-108,20.605-108,41.21c0,20.603,108,20.603,108,41.206c0,20.606-108,20.606-108,41.211c0,20.606,108,20.606,108,41.212
		c0,20.606-108,20.606-108,41.213s108,20.606,108,41.213c0,20.609-111.425,34.646-106.312,54.611
		C1728.272,547.031,1801.549,574.301,1781.569,579.353z"/>
</g>
</svg>
