<?xml version="1.0" encoding="UTF-8" standalone="no"?>
<!-- Created with Inkscape (http://www.inkscape.org/) -->

<svg
   xmlns:dc="http://purl.org/dc/elements/1.1/"
   xmlns:cc="http://creativecommons.org/ns#"
   xmlns:rdf="http://www.w3.org/1999/02/22-rdf-syntax-ns#"
   xmlns:svg="http://www.w3.org/2000/svg"
   xmlns="http://www.w3.org/2000/svg"
   xmlns:sodipodi="http://sodipodi.sourceforge.net/DTD/sodipodi-0.dtd"
   xmlns:inkscape="http://www.inkscape.org/namespaces/inkscape"
   width="1495"
   height="108"
   viewBox="0 0 1495 107.99999"
   id="svg6447"
   version="1.1"
   inkscape:version="0.91 r13725"
   sodipodi:docname="wave1.svg">
  <defs
     id="defs6449">
    <clipPath
       clipPathUnits="userSpaceOnUse"
       id="clipPath4638-2">
      <rect
         style="fill:#00aad4;fill-opacity:1"
         id="rect4640-5"
         width="151.79984"
         height="169.94701"
         x="-490.72137"
         y="234.07944"
         ry="6.2791791"
         transform="matrix(-0.9425568,-0.33404593,-0.31979873,0.9474855,0,0)" />
    </clipPath>
    <clipPath
       clipPathUnits="userSpaceOnUse"
       id="clipPath7005">
      <rect
         style="fill:#00aad4;fill-opacity:1"
         id="rect7007"
         width="151.79984"
         height="169.94701"
         x="-490.72137"
         y="234.07944"
         ry="6.2791791"
         transform="matrix(-0.9425568,-0.33404593,-0.31979873,0.9474855,0,0)" />
    </clipPath>
    <clipPath
       clipPathUnits="userSpaceOnUse"
       id="clipPath7009">
      <rect
         style="fill:#00aad4;fill-opacity:1"
         id="rect7011"
         width="151.79984"
         height="169.94701"
         x="-490.72137"
         y="234.07944"
         ry="6.2791791"
         transform="matrix(-0.9425568,-0.33404593,-0.31979873,0.9474855,0,0)" />
    </clipPath>
  </defs>
  <sodipodi:namedview
     id="base"
     pagecolor="#ffffff"
     bordercolor="#666666"
     borderopacity="1.0"
     inkscape:pageopacity="0.0"
     inkscape:pageshadow="2"
     inkscape:zoom="1.4"
     inkscape:cx="735.11285"
     inkscape:cy="-3.5333096"
     inkscape:document-units="px"
     inkscape:current-layer="g6371"
     showgrid="false"
     inkscape:window-width="1276"
     inkscape:window-height="755"
     inkscape:window-x="4"
     inkscape:window-y="0"
     inkscape:window-maximized="1"
     fit-margin-top="0"
     fit-margin-left="0"
     fit-margin-right="0"
     fit-margin-bottom="0"
     units="px" />
  <metadata
     id="metadata6452">
    <rdf:RDF>
      <cc:Work
         rdf:about="">
        <dc:format>image/svg+xml</dc:format>
        <dc:type
           rdf:resource="http://purl.org/dc/dcmitype/StillImage" />
        <dc:title></dc:title>
      </cc:Work>
    </rdf:RDF>
  </metadata>
  <g
     inkscape:label="Layer 1"
     inkscape:groupmode="layer"
     id="layer1"
     transform="translate(333.2135,-355.78572)">
    <g
       style="display:inline"
       id="g6371"
       transform="translate(-412.58757,-602.75149)">
      <g
         inkscape:export-ydpi="301.52682"
         inkscape:export-xdpi="301.52682"
         id="g6330">
        <path
           inkscape:export-ydpi="339.87195"
           inkscape:export-xdpi="339.87195"
           sodipodi:nodetypes="czzzcccc"
           inkscape:connector-curvature="0"
           id="path6152"
           d="m 79.374069,959.03057 c 26.471081,0 45.210251,34.60941 74.439431,34.62332 29.22918,0.0139 45.17412,-34.51748 74.59776,-34.62332 29.42364,-0.10584 46.39186,35.84837 75.8106,35.7395 29.41874,-0.10887 43.57123,-35.7395 74.56325,-35.7395 0.3476,0 0,107.50663 0,107.50663 l -299.411041,0 z"
           style="fill:#006680;fill-opacity:1;stroke:none;stroke-width:0.5;stroke-miterlimit:4;stroke-dasharray:none;stroke-opacity:1" />
        <path
           inkscape:export-ydpi="339.87195"
           inkscape:export-xdpi="339.87195"
           style="fill:#006680;fill-opacity:1;stroke:none;stroke-width:0.5;stroke-miterlimit:4;stroke-dasharray:none;stroke-opacity:1"
           d="m 378.085,959.03057 c 26.47108,0 45.21025,34.60941 74.43943,34.62332 29.22918,0.0139 45.17412,-34.51748 74.59776,-34.62332 29.42364,-0.10584 46.39186,35.84837 75.8106,35.7395 29.41874,-0.10887 43.57123,-35.7395 74.56325,-35.7395 0.3476,0 0,107.50663 0,107.50663 l -299.41104,0 z"
           id="path6154"
           inkscape:connector-curvature="0"
           sodipodi:nodetypes="czzzcccc" />
        <path
           inkscape:export-ydpi="339.87195"
           inkscape:export-xdpi="339.87195"
           style="fill:#006680;fill-opacity:1;stroke:none;stroke-width:0.5;stroke-miterlimit:4;stroke-dasharray:none;stroke-opacity:1"
           d="m 676.696,959.03057 c 26.47109,0 45.21026,34.60941 74.43944,34.62332 29.22918,0.0139 45.17412,-34.51748 74.59776,-34.62332 29.42364,-0.10584 46.39186,35.84837 75.8106,35.7395 29.41874,-0.10887 43.57123,-35.7395 74.56325,-35.7395 0.3476,0 0,107.50663 0,107.50663 l -299.41105,0 z"
           id="path6156"
           inkscape:connector-curvature="0"
           sodipodi:nodetypes="czzzcccc" />
        <path
           style="fill:#006680;fill-opacity:1;stroke:none;stroke-width:0.5;stroke-miterlimit:4;stroke-dasharray:none;stroke-opacity:1"
           d="m 1274.807,959.03057 c 26.4711,0 45.2102,34.60941 74.4394,34.62332 29.2292,0.0139 45.1741,-34.51748 74.5978,-34.62332 29.4236,-0.10584 46.3918,35.84837 75.8106,35.7395 29.4187,-0.10887 43.5712,-35.7395 74.5632,-35.7395 0.3476,0 0,107.50663 0,107.50663 l -299.411,0 z"
           id="path6313"
           inkscape:connector-curvature="0"
           sodipodi:nodetypes="czzzcccc"
           inkscape:export-xdpi="339.87195"
           inkscape:export-ydpi="339.87195" />
        <path
           inkscape:export-ydpi="339.87195"
           inkscape:export-xdpi="339.87195"
           sodipodi:nodetypes="czzzcccc"
           inkscape:connector-curvature="0"
           id="path6158"
           d="m 975.807,959.03057 c 26.4711,0 45.2102,34.60941 74.4394,34.62332 29.2292,0.0139 45.1741,-34.51748 74.5978,-34.62332 29.4236,-0.10584 46.3918,35.84837 75.8106,35.7395 29.4187,-0.10887 43.5712,-35.7395 74.5632,-35.7395 0.3476,0 0,107.50663 0,107.50663 l -299.411,0 z"
           style="fill:#006680;fill-opacity:1;stroke:none;stroke-width:0.5;stroke-miterlimit:4;stroke-dasharray:none;stroke-opacity:1" />
      </g>
    </g>
  </g>
</svg>
